<svg id="Layer_1" data-name="Layer 1" xmlns="http://www.w3.org/2000/svg" viewBox="0 0 269.33 165.33"><defs><style>.cls-1{fill:#eaeaea;}.cls-2{fill:#e57a99;}.cls-3{fill:#f9f9fa;stroke:#e8e8e8;stroke-width:0.53px;}.cls-20,.cls-3{stroke-miterlimit:10;}.cls-4,.cls-9{font-size:5.28px;}.cls-13,.cls-22,.cls-26,.cls-4,.cls-9{fill:#969696;font-family:MyriadPro-Regular, Myriad Pro;}.cls-4{letter-spacing:0.07em;}.cls-5{letter-spacing:0.08em;}.cls-6,.cls-9{letter-spacing:0.08em;}.cls-7{letter-spacing:0.08em;}.cls-8{letter-spacing:0.08em;}.cls-10{letter-spacing:0.09em;}.cls-11{letter-spacing:0.07em;}.cls-12{letter-spacing:0.08em;}.cls-13{font-size:5.28px;letter-spacing:0.08em;}.cls-14{letter-spacing:0.07em;}.cls-15{letter-spacing:0.07em;}.cls-16{letter-spacing:0.1em;}.cls-17{letter-spacing:0.07em;}.cls-18{letter-spacing:0.07em;}.cls-19{letter-spacing:0.08em;}.cls-20{fill:#ededed;stroke:#3391af;stroke-width:1.08px;}.cls-21{font-size:9.39px;fill:#3391af;font-family:Montserrat-Bold, Montserrat;font-weight:700;}.cls-22{font-size:6.04px;}.cls-23{letter-spacing:0em;}.cls-24{letter-spacing:0em;}.cls-25{letter-spacing:0.01em;}.cls-26{font-size:4.16px;}.cls-27{letter-spacing:-0.01em;}.cls-28{letter-spacing:0em;}.cls-29{letter-spacing:0.01em;}.cls-30{letter-spacing:0.02em;}.cls-31{letter-spacing:-0.01em;}.cls-32{fill:#e47a98;}.cls-33{fill:#fff;}.cls-34{fill:#3691ae;}</style></defs><title>map</title><rect class="cls-1" x="83.85" y="49.06" width="15.85" height="15.85" rx="2.83" ry="2.83"/><rect class="cls-2" x="57.7" y="49.06" width="15.85" height="15.85" rx="2.83" ry="2.83"/><rect class="cls-1" x="110" y="49.06" width="15.85" height="15.85" rx="2.83" ry="2.83"/><path class="cls-1" d="M325,104.4a5,5,0,0,1-5,5H245.4A15.36,15.36,0,0,1,230,94l-3.69-49.42a2.52,2.52,0,0,1,2.51-2.71h91.59A4.54,4.54,0,0,1,325,46.43Z"/><path class="cls-1" d="M44,73.71h38A1.26,1.26,0,0,1,83.18,75v25.85A1.23,1.23,0,0,1,82,102H53.87A11.14,11.14,0,0,1,42.73,90.9v-16A1.22,1.22,0,0,1,44,73.71Z"/><path class="cls-1" d="M46.63,60.76V37.66a1.22,1.22,0,0,1,1.22-1.22l36.47-.2A1.25,1.25,0,0,0,85.56,35V28.82a1.24,1.24,0,0,0-1.24-1.24H77.12V23.9H46.38l0,3.24H38a1.1,1.1,0,0,0-1.1,1.1V60.76A1.21,1.21,0,0,0,38.12,62h7.29A1.21,1.21,0,0,0,46.63,60.76Z"/><path class="cls-1" d="M136.24,60.76V37.66A1.22,1.22,0,0,0,135,36.44l-36.47-.2A1.25,1.25,0,0,1,97.31,35V28.82a1.24,1.24,0,0,1,1.24-1.24h7.19V23.9h30.75l0,3.24h8.4a1.1,1.1,0,0,1,1.1,1.1V60.76A1.21,1.21,0,0,1,144.75,62h-7.29A1.21,1.21,0,0,1,136.24,60.76Z"/><path class="cls-1" d="M135.79,74.9V87.65a1.28,1.28,0,0,1-1.28,1.28H108.69a1.21,1.21,0,0,1-1.21-1.21V75a1.25,1.25,0,0,0-1.25-1.25H98.57A1.26,1.26,0,0,0,97.31,75V99.83a1.27,1.27,0,0,0,1.27,1.27h46.12A1.26,1.26,0,0,0,146,99.84V75a1.27,1.27,0,0,0-1.27-1.27H137A1.2,1.2,0,0,0,135.79,74.9Z"/><path class="cls-3" d="M252.26,126.67c-18.47-2.25-22.67-12.43-24.17-21.3l-.25-1.46-.07-.41c-3.19-26-5.34-53.83-5.3-78.35,18,.93,67.57,4.69,85.86,6.2l.41-4.91c-18.42-1.51-68.16-5.29-86.23-6.22.41-28.5,4-51.83,12.74-61.34L222.28-53c-12,13.08-16.74,40.53-17.37,72.42q-25.78-1.11-51.39-1.7c-.16-5.26-1.32-15.58-15.58-24-18.53-10.93-74.85-45.63-75.42-46l-2.59,4.2c.57.35,56.93,35.08,75.5,46,11.76,6.94,13,15,13.14,19.62-38.63-.8-77.31-.85-116.9-.86C30-8.15,28.6-32.26,27.85-53.24l-17.6.63C11.88-7.37,16.38,52.21,20.69,102.62c-1.42,14-8.51,17.79-16.41,19.31q-40.82,1.87-81.6,5.45c-4,.35-8,.84-11.91,1.33l-3.77.46,2.09,17.48,3.83-.47c3.75-.46,7.52-.93,11.3-1.27q39.15-3.47,78.37-5.3c17,2.25,21.66,13.49,22.87,20.64l.33,1.89c.15.88.33,1.88.51,3,.69,7.28,1.31,13.79,1.84,19.29l17.52-1.7c-.54-5.57-1.17-12.18-1.87-19.58.73-14.09,7.05-22.26,18.89-24.26.72-.12,1.56-.31,2.49-.52a78.5,78.5,0,0,1,8.24-.61s76.08.23,113.93,2.14v.2c19.74.85,30.17,11.3,34.87,35h.07c.53,2.25,1,4.33,1.5,6.07l17-4.53c-.84-3.14-1.68-6.61-2.53-10.35-.9-7.27.2-12.67,3.32-16.07,4-4.33,11.08-5.31,16.36-5.36q23,2,45.82,4.64l2-17.49Q279.09,128.92,252.26,126.67ZM148.78,22.49c.54,10.44.86,28.39,1,45-18.72-.14-38.46-.18-58.23-.22-19.06,0-38.07-.08-56.19-.21C34.22,52,33.06,36.72,32,21.63,71.56,21.64,110.2,21.69,148.78,22.49ZM67,120C51,118.25,41.23,111.77,39.5,101.47L39.26,100c-.48-2.79-2.14-12.11-2.14-12.11-.44-5.26-.88-10.61-1.31-16,18,.13,36.87.17,55.78.21,19.79,0,39.55.08,58.29.22.13,13.18.18,24.85.19,30.16a.55.55,0,0,1-.55.55c-9.74-.05-40.23-.19-52.25,0-4.76.09-8,3.37-8,8.19,0,4.15,1.12,7.13,3.07,8.63C83.93,119.91,75.48,119.93,67,120Zm124.58,2.12-1.54.24c-16-.82-32-1.39-48-1.81-6.42-4.94-21.36-4.76-35.82-4.57-3.71,0-7.33.09-10.67,0-.56,0-1.34-1.68-1.34-4.8,0-2.16,1-3.22,3.12-3.26,14.28-.24,54.77,0,55.18,0h1.76a.71.71,0,0,0,.72-.72v-1.76c0-.62-.11-59.54-1.29-82.95q25.51.57,51.12,1.69c-.17,24,1.82,50.06,4.68,74.29C209.13,116.56,200.86,120.61,191.6,122.17Z"/><text class="cls-4" transform="matrix(1, 0.02, -0.02, 1, 109.53, 130.32)">Ju<tspan class="cls-5" x="5.66" y="0">r</tspan><tspan class="cls-6" x="7.8" y="0">ija </tspan><tspan class="cls-7" x="15.57" y="0">G</tspan><tspan x="19.42" y="0">aga</tspan><tspan class="cls-8" x="28.65" y="0">r</tspan><tspan x="30.8" y="0">ina</tspan></text><text class="cls-9" transform="translate(20.69 15.86) rotate(85.32)">Omladins<tspan class="cls-10" x="24.24" y="0">k</tspan><tspan class="cls-11" x="27.21" y="0">ih b</tspan><tspan class="cls-12" x="37.08" y="0">r</tspan><tspan x="39.23" y="0">igada</tspan></text><text class="cls-9" transform="matrix(0.99, 0.11, -0.11, 0.99, 248.88, 136.62)">Ju<tspan class="cls-5" x="5.66" y="0">r</tspan><tspan class="cls-11" x="7.8" y="0">ija </tspan><tspan class="cls-7" x="15.57" y="0">G</tspan><tspan class="cls-11" x="19.42" y="0">aga</tspan><tspan class="cls-5" x="28.65" y="0">r</tspan><tspan class="cls-11" x="30.8" y="0">ina</tspan></text><text class="cls-13" transform="translate(212.4 42.93) rotate(85.62)">Bule<tspan class="cls-14" x="11.25" y="0">v</tspan><tspan x="14.17" y="0">ar </tspan><tspan class="cls-15" x="20.75" y="0">C</tspan><tspan class="cls-16" x="24.19" y="0">r</tspan><tspan class="cls-17" x="26.45" y="0">v</tspan><tspan class="cls-18" x="29.33" y="0">ene a</tspan><tspan class="cls-19" x="43.2" y="0">r</tspan><tspan x="45.34" y="0">mije</tspan></text><rect class="cls-20" x="158.03" y="89.79" width="12.73" height="12.73" rx="2.85" ry="2.85"/><text class="cls-21" transform="translate(161.33 99.43)">P</text><rect class="cls-20" x="68.46" y="75.63" width="12.73" height="12.73" rx="2.85" ry="2.85"/><text class="cls-21" transform="translate(71.76 85.27)">P</text><text class="cls-22" transform="translate(237.31 77.27)"><tspan class="cls-23">D</tspan><tspan x="4.05" y="0">elta </tspan><tspan class="cls-24" x="14.69" y="0">C</tspan><tspan x="18.18" y="0">i</tspan><tspan class="cls-25" x="19.59" y="0">t</tspan><tspan x="21.65" y="0">y</tspan></text><text class="cls-26" transform="translate(74.82 71)">U<tspan class="cls-27" x="2.69" y="0">r</tspan><tspan class="cls-28" x="4.01" y="0">oša </tspan><tspan class="cls-29" x="10.82" y="0">M</tspan><tspan x="14.18" y="0">a</tspan><tspan class="cls-30" x="16.19" y="0">r</tspan><tspan x="17.64" y="0">tin</tspan><tspan class="cls-31" x="22.3" y="0">o</tspan><tspan x="24.55" y="0">vića</tspan></text><text class="cls-26" transform="matrix(1, 0.01, -0.01, 1, 86.98, 21.02)">U<tspan class="cls-27" x="2.69" y="0">r</tspan><tspan class="cls-28" x="4.01" y="0">oša </tspan><tspan class="cls-29" x="10.82" y="0">M</tspan><tspan x="14.18" y="0">a</tspan><tspan class="cls-30" x="16.19" y="0">r</tspan><tspan x="17.64" y="0">tin</tspan><tspan class="cls-31" x="22.3" y="0">o</tspan><tspan x="24.55" y="0">vića</tspan></text><path class="cls-32" d="M65.62,13.46c-8.3,0-17.08,7.83-15,16.84,1.94,8.51,15,23.8,15,23.8s13.09-15.29,15-23.8C82.7,21.29,73.92,13.46,65.62,13.46Z"/><path class="cls-33" d="M65.62,52.26C62.64,48.68,53.3,36.9,51.74,30a11.33,11.33,0,0,1,2.43-9.68,15.3,15.3,0,0,1,11.45-5.71,15.3,15.3,0,0,1,11.45,5.71A11.33,11.33,0,0,1,79.5,30C77.94,36.9,68.58,48.66,65.62,52.26Z"/><path id="_Compound_Path_" data-name=" Compound Path " class="cls-34" d="M59.66,18.62c0-.09.1-.11.18-.11h1.38A1.59,1.59,0,0,1,62.89,20v.83a1.5,1.5,0,0,1-1.51,1.48h-1.6s-.08,0-.09-.05a.14.14,0,0,1,0-.08ZM61.19,22a1.19,1.19,0,0,0,1.33-1.28v-.53a1.19,1.19,0,0,0-1.1-1.28H60.07V22h1.13Z"/><path id="_Compound_Path_2" data-name=" Compound Path 2" class="cls-34" d="M67.27,22.16c0,.09-.1.16-.2.16a.17.17,0,0,1-.19-.13,1,1,0,0,0-.1-.27l-.26-.69H64.73c-.2.54-.36,1-.36,1a.17.17,0,0,1-.2.13c-.1,0-.23-.07-.18-.16l1.3-3.58c0-.09.07-.11.17-.11h.33c.1,0,.15,0,.17.11Zm-2.38-1.31h1.5c-.31-.83-.67-1.79-.76-2.05-.09.28-.44,1.19-.74,2.05"/><path id="_Compound_Path_3" data-name=" Compound Path 3" class="cls-34" d="M68.88,22.17c0,.11-.1.15-.18.15s-.2,0-.2-.15V18.56c0-.08.1-.1.2-.1h1.56a1.19,1.19,0,0,1,1.29,1.26,1.08,1.08,0,0,1-.92,1.16L71.54,22c.08.11,0,.16-.07.24a.17.17,0,0,1-.24,0l0-.06-1-1.31H68.88Zm0-3.33v1.7h1.37c.6,0,.91-.31.91-.84a.86.86,0,0,0-.86-.87H68.88Z"/><path id="_Path_" data-name=" Path " class="cls-34" d="M54.33,24.34v2.83c0,.1-.09.13-.18.13s-.21,0-.21-.12v-3.6c0-.1.1-.11.21-.11s.14,0,.2.11,1.4,2.49,1.84,3.23c.38-.75,1.65-3.06,1.74-3.24s.1-.1.19-.1.18,0,.2.11v3.61c0,.1-.1.13-.2.13s-.19,0-.19-.12V24.38c-.26.48-.6,1.19-.93,1.72l-.53,1a.47.47,0,0,1-.06.11.24.24,0,0,1-.18.1h0A.21.21,0,0,1,56,27.2Z"/><path id="_Path_2" data-name=" Path 2" class="cls-34" d="M61.35,23.88H60V25.1h2c.08,0,.09.07.09.18s0,.17-.07.19H60v1.46h2.3c.08,0,.1.07.1.18s0,.18-.1.2h-2.5c-.1,0-.19,0-.2-.12V23.62c0-.07,0-.1.12-.1h2.46c.08,0,.1.1.1.2s0,.18-.09.18Z"/><path id="_Compound_Path_4" data-name=" Compound Path 4" class="cls-34" d="M63.62,23.61c0-.09.1-.11.18-.11h1.38A1.59,1.59,0,0,1,66.86,25v.82a1.5,1.5,0,0,1-1.5,1.49H63.74s-.08,0-.09-.05a.14.14,0,0,1,0-.08ZM65.19,27a1.19,1.19,0,0,0,1.33-1.28v-.53a1.19,1.19,0,0,0-1.09-1.29H64.06V27h1.13Z"/><path id="_Path_3" data-name=" Path 3" class="cls-34" d="M68.17,23.55c0-.08.1-.1.2-.1s.18,0,.2.1v3.64c0,.1-.1.13-.2.13s-.2,0-.2-.13Z"/><path id="_Path_4" data-name=" Path 4" class="cls-34" d="M72.94,26.73a.23.23,0,0,1-.05.1,1.45,1.45,0,0,1-1.38.6c-1.43,0-1.71-1.22-1.74-2a1.74,1.74,0,0,1,1.75-2,1.57,1.57,0,0,1,1.38.6.22.22,0,0,1,0,.09.18.18,0,0,1-.07.18c-.18.13-.18,0-.31-.08a1.25,1.25,0,0,0-1-.42c-.82,0-1.37.54-1.38,1.61a1.41,1.41,0,0,0,1.38,1.61,1.13,1.13,0,0,0,1-.38c.09-.13.16-.2.29-.11s.12.14.1.2"/><path id="_Compound_Path_5" data-name=" Compound Path 5" class="cls-34" d="M77.29,27.16c0,.09-.1.16-.2.16a.17.17,0,0,1-.19-.13,1,1,0,0,0-.1-.27l-.28-.69H74.73c-.2.54-.36,1-.36,1a.17.17,0,0,1-.2.13c-.1,0-.23-.07-.18-.16l1.3-3.58c0-.09.07-.11.17-.11h.32c.1,0,.15,0,.17.11Zm-2.38-1.31H76.4c-.31-.83-.67-1.79-.76-2.05-.09.28-.44,1.19-.74,2.05"/><path id="_Path_5" data-name=" Path 5" class="cls-32" d="M64.66,39.13a6.8,6.8,0,0,1-3-1.42,11.16,11.16,0,0,0-2.45-1.37,2.71,2.71,0,0,0-2,.18,1.66,1.66,0,0,0-.84,1,.24.24,0,0,1-.45-.14h0A2.11,2.11,0,0,1,57,36.1a3.21,3.21,0,0,1,2.34-.21A11.45,11.45,0,0,1,62,37.32a6.8,6.8,0,0,0,2.7,1.33c1.19,0,6.24-2.21,6.8-2.49A9.15,9.15,0,0,0,74,34.1a2.38,2.38,0,0,0,.8-1.6.23.23,0,0,0-.11-.18c-.23-.13-.45,0-1.12.55l-.17.13-.22.17a10.9,10.9,0,0,1-1.58,1.07,3.81,3.81,0,0,1-3.45.1,3.47,3.47,0,0,0-.81-.22c-.34,0-.55.2-.8.6a2.75,2.75,0,0,1-.89,1,.94.94,0,0,1-1,0c-.17-.13-.34-.41-.18-1a2.3,2.3,0,0,1,.23-.48c.16-.29.34-.6.23-.8a.54.54,0,0,0-.36-.26,3.13,3.13,0,0,0-2.07.55,3.16,3.16,0,0,1-3.7-.24,2,2,0,0,1-.54-2.36,3.49,3.49,0,0,1,4.12-1.69,10.14,10.14,0,0,1,2.56,1.06c.82.44,1.6.85,2,.64a5.63,5.63,0,0,0,.94-.75,4.64,4.64,0,0,1,1.32-.94,2.1,2.1,0,0,1,1.63.06,1.9,1.9,0,0,1,1,1.1,1.86,1.86,0,0,1-.12,1.49,2.23,2.23,0,0,1-1.42,1.14,3.45,3.45,0,0,1-2.19-.44.24.24,0,0,1,.23-.41,3,3,0,0,0,1.84.39A1.79,1.79,0,0,0,71.28,32a1.4,1.4,0,0,0,.09-1.11,1.44,1.44,0,0,0-.81-.83A1.63,1.63,0,0,0,69.3,30a4.23,4.23,0,0,0-1.19.86,6.06,6.06,0,0,1-1,.8c-.6.33-1.39-.1-2.38-.63a9.81,9.81,0,0,0-2.44-1,3,3,0,0,0-3.58,1.42,1.51,1.51,0,0,0,.42,1.79,2.69,2.69,0,0,0,3.15.19,3.62,3.62,0,0,1,2.44-.6,1,1,0,0,1,.64.48,1.25,1.25,0,0,1-.23,1.26,2,2,0,0,0-.18.37.6.6,0,0,0,0,.46.54.54,0,0,0,.51-.06,2.43,2.43,0,0,0,.74-.82,1.4,1.4,0,0,1,1.23-.83,3.77,3.77,0,0,1,.93.24,3.36,3.36,0,0,0,3.06-.05,10.41,10.41,0,0,0,1.54-1l.22-.17.17-.13c.7-.55,1.13-.89,1.65-.6a.7.7,0,0,1,.34.52,2.8,2.8,0,0,1-.92,2,9.6,9.6,0,0,1-2.71,2.17c-.35.17-5.63,2.54-7,2.54"/></svg>