<svg id="Layer_1" data-name="Layer 1" xmlns="http://www.w3.org/2000/svg" viewBox="0 0 283.46 158.74"><defs><style>.cls-1{fill:#0054a6;}.cls-1,.cls-2{fill-rule:evenodd;}.cls-2{fill:#ed1c24;}</style></defs><title>dina</title><path class="cls-1" d="M51.82,83.41h2.53c2.32,0,3.94-.4,4.85-1.11a4.58,4.58,0,0,0,1.41-3.74,4.67,4.67,0,0,0-1.41-3.84c-.91-.81-2.53-1.11-4.75-1.11H51.82v9.8Zm-9.5,5.05V68.56H53.74a57.16,57.16,0,0,1,6.57.2,15.91,15.91,0,0,1,3.64.91,9.72,9.72,0,0,1,4.65,3.43,9.61,9.61,0,0,1,1.52,5.46,8.72,8.72,0,0,1-1.92,5.66,11.51,11.51,0,0,1-5.66,3.43,15,15,0,0,1-3.54.61c-1.52.1-3.74.2-7,.2ZM73.54,72.3V68.06h8.69V72.3Zm0,16.16V73.71h8.69V88.46Zm12.93,0V73.71h7.88v2.22A9.26,9.26,0,0,1,97.68,74a14.36,14.36,0,0,1,4.24-.61,12.61,12.61,0,0,1,3.54.4,6.43,6.43,0,0,1,2.63,1.31,4.62,4.62,0,0,1,1.41,2,10.84,10.84,0,0,1,.4,3.64v7.68h-8.59V80.78a2.67,2.67,0,0,0-.71-2.22A3.25,3.25,0,0,0,98.39,78a3.77,3.77,0,0,0-2.53.71,2.7,2.7,0,0,0-.71,2.12v7.68ZM128.4,81.9c-.81.2-1.92.4-3.23.61-2.22.4-3.23.91-3.23,1.62a1.23,1.23,0,0,0,.61,1,4.22,4.22,0,0,0,1.82.3,5.13,5.13,0,0,0,3.13-.71,2.21,2.21,0,0,0,1-2.12V82.1c0-.1,0-.2-.1-.2Zm.81,6.57L128.7,87a15.22,15.22,0,0,1-3.54,1.41,14.66,14.66,0,0,1-4.34.51,11.62,11.62,0,0,1-5.76-1.21,3.85,3.85,0,0,1-1.92-3.43A3.49,3.49,0,0,1,115.06,81a28.12,28.12,0,0,1,7.48-1.52c.51,0,1.11-.1,1.92-.1,2.73-.1,4-.61,4-1.31a1,1,0,0,0-.71-1,7.64,7.64,0,0,0-2.42-.2,5.67,5.67,0,0,0-2,.3,1.34,1.34,0,0,0-.81,1.11h-8.49a4.36,4.36,0,0,1,3-3.74c1.92-.91,4.85-1.31,8.59-1.31a25.18,25.18,0,0,1,5,.4,11.82,11.82,0,0,1,3.54.91A5.67,5.67,0,0,1,136.38,76a4.81,4.81,0,0,1,.61,2.63v8.08a1.46,1.46,0,0,0,.2.71,2.06,2.06,0,0,0,.71.61v.4Zm31.52-7.78h8.89a7.79,7.79,0,0,1-4,6.16q-3.64,2.12-10,2.12c-4.75,0-8.49-.91-11.11-2.83a8.6,8.6,0,0,1-3.94-7.58,9.09,9.09,0,0,1,3.84-7.78c2.73-1.82,6.36-2.83,11-2.83q6.36,0,10,2.12a7.83,7.83,0,0,1,4.14,6.06h-9.09A2.85,2.85,0,0,0,159,73.81a6.77,6.77,0,0,0-3.54-.81c-1.92,0-3.23.4-4.14,1.41s-1.41,2.22-1.41,4.14a5.61,5.61,0,0,0,1.41,4A6.41,6.41,0,0,0,155.67,84a6.11,6.11,0,0,0,3.54-.91,3.63,3.63,0,0,0,1.52-2.42Zm26.47,1.21q-1.21.3-3.33.61c-2.12.4-3.23.91-3.23,1.62,0,.4.2.71.71,1a4.22,4.22,0,0,0,1.82.3,5.33,5.33,0,0,0,3.13-.71,2.41,2.41,0,0,0,1-2.12.76.76,0,0,0-.1-.51v-.2Zm.81,6.57L187.49,87a14.34,14.34,0,0,1-3.64,1.41,14.66,14.66,0,0,1-4.34.51,11,11,0,0,1-5.66-1.21,4,4,0,0,1-2-3.43,3.57,3.57,0,0,1,2-3.33,28.12,28.12,0,0,1,7.48-1.52c.4,0,1.11-.1,1.82-.1,2.73-.1,4.14-.61,4.14-1.31a1.1,1.1,0,0,0-.71-1,7.64,7.64,0,0,0-2.42-.2,5,5,0,0,0-2,.3,1.46,1.46,0,0,0-.91,1.11h-8.38c0-1.62,1-2.93,3-3.74s4.75-1.31,8.59-1.31a25.18,25.18,0,0,1,5,.4,11.82,11.82,0,0,1,3.54.91A5.22,5.22,0,0,1,195.07,76a4.81,4.81,0,0,1,.61,2.63v8.08a.92.92,0,0,0,.3.71c.1.3.4.4.71.61v.4Zm12.12,0V73.71h8v2.73a4.94,4.94,0,0,1,2.42-2.32,10.35,10.35,0,0,1,4.24-.71h.81v5.86a2.8,2.8,0,0,0-.91-.1h-.81a7.38,7.38,0,0,0-3.84.71,2.59,2.59,0,0,0-1.31,2.53v6.06Zm41,0h-7.68V86.64a8,8,0,0,1-3.13,1.72,12.58,12.58,0,0,1-4,.61,10.15,10.15,0,0,1-6.67-2.12A7.11,7.11,0,0,1,217,81.09a7,7,0,0,1,2.63-5.56,9.68,9.68,0,0,1,6.67-2.22,13,13,0,0,1,3.54.51,7.69,7.69,0,0,1,2.83,1.52V68.56h8.49v19.9Zm-11.92-3.84a3.78,3.78,0,0,0,2.63-.91,3.36,3.36,0,0,0,.91-2.53,3,3,0,0,0-.91-2.42,4.25,4.25,0,0,0-5.25,0,3,3,0,0,0-.91,2.42,3.36,3.36,0,0,0,.91,2.53,3.61,3.61,0,0,0,2.63.91Z"/><path class="cls-1" d="M89.4,122.1H192.65a43,43,0,0,0,39.8-26.77H227.6a38.39,38.39,0,0,1-35,22.43H89.4a38.5,38.5,0,0,1-35-22.43H49.7A42.89,42.89,0,0,0,89.4,122.1Zm143-58.69a43,43,0,0,0-39.8-26.77H89.4A42.89,42.89,0,0,0,49.7,63.41h4.75A38.5,38.5,0,0,1,89.4,41H192.65a38.39,38.39,0,0,1,35,22.43Z"/><path class="cls-2" d="M141.43,24.72a54.78,54.78,0,0,1,52.13,38.69H89.1a54.84,54.84,0,0,1,52.33-38.69Zm52.13,70.61a54.6,54.6,0,0,1-104.46,0Z"/></svg>