<svg id="Layer_1" data-name="Layer 1" xmlns="http://www.w3.org/2000/svg" viewBox="0 0 283.46 158.74"><defs><style>.cls-1{fill:#2397d3;}.cls-2{fill:#6e6bb0;}.cls-3{fill:#e91d25;}.cls-4{fill:#221f1f;}</style></defs><title>maestro</title><path class="cls-1" d="M219.53,96.55V94.68H219L218.47,96l-.56-1.29h-.49v1.87h.35V95.14l.53,1.22h.36l.53-1.22v1.41Zm-3.1,0V95h.63v-.32h-1.6V95h.63v1.55Z"/><path class="cls-2" d="M164,104.61H121.81V28.71H164Z"/><path class="cls-3" d="M124.51,66.65A48.19,48.19,0,0,1,142.95,28.7a48.27,48.27,0,1,0,0,75.9,48.19,48.19,0,0,1-18.43-37.95"/><path class="cls-1" d="M221,66.65a48.27,48.27,0,0,1-78.1,37.95,48.27,48.27,0,0,0,0-75.9A48.27,48.27,0,0,1,221,66.65"/><path class="cls-4" d="M178.28,126a6,6,0,0,1,2,.35l-.86,2.63a4.52,4.52,0,0,0-1.74-.32c-1.82,0-2.73,1.18-2.73,3.3v7.19h-2.79V126.36h2.76v1.56a3.78,3.78,0,0,1,3.38-1.88M168,128.91h-4.56v5.79c0,1.29.45,2.15,1.85,2.15a5.14,5.14,0,0,0,2.46-.72l.8,2.38a6.54,6.54,0,0,1-3.48,1c-3.3,0-4.45-1.77-4.45-4.75v-5.84H158v-2.55h2.6v-3.89h2.81v3.89H168Zm-35.69,2.73a3.3,3.3,0,0,1,3.41-3.11c1.8,0,2.95,1.13,3.24,3.11Zm9.55,1.13c0-4-2.49-6.73-6.09-6.73-3.75,0-6.38,2.73-6.38,6.73a6.32,6.32,0,0,0,6.57,6.73,7.79,7.79,0,0,0,5.25-1.8l-1.37-2.07A6.09,6.09,0,0,1,136.1,137a3.56,3.56,0,0,1-3.83-3.14h9.52c0-.35.06-.7.06-1.07m12.25-3.14a8.22,8.22,0,0,0-4-1.1c-1.53,0-2.44.56-2.44,1.5s1,1.1,2.17,1.26l1.31.19c2.79.41,4.48,1.58,4.48,3.84,0,2.44-2.15,4.18-5.84,4.18a9.25,9.25,0,0,1-5.55-1.66l1.31-2.17A6.83,6.83,0,0,0,149.8,137c1.9,0,2.92-.56,2.92-1.56,0-.72-.72-1.13-2.25-1.34l-1.31-.19c-2.87-.41-4.43-1.69-4.43-3.78,0-2.55,2.09-4.1,5.34-4.1a9.58,9.58,0,0,1,5.23,1.34Zm34.39-.95a4.22,4.22,0,0,0-1.6.3,3.84,3.84,0,0,0-1.28.85,3.93,3.93,0,0,0-.85,1.3,4.71,4.71,0,0,0,0,3.35,3.93,3.93,0,0,0,.85,1.3,3.84,3.84,0,0,0,1.28.85,4.4,4.4,0,0,0,3.2,0,3.83,3.83,0,0,0,1.28-.85,3.9,3.9,0,0,0,.86-1.3,4.71,4.71,0,0,0,0-3.35,3.9,3.9,0,0,0-.86-1.3,3.83,3.83,0,0,0-1.28-.85,4.21,4.21,0,0,0-1.6-.3m0-2.65a7.22,7.22,0,0,1,2.76.52,6.7,6.7,0,0,1,2.2,1.42,6.52,6.52,0,0,1,1.45,2.14,7.15,7.15,0,0,1,0,5.38,6.53,6.53,0,0,1-1.45,2.15,6.75,6.75,0,0,1-2.2,1.42,7.66,7.66,0,0,1-5.52,0,6.68,6.68,0,0,1-2.19-1.42,6.61,6.61,0,0,1-1.45-2.15,7.15,7.15,0,0,1,0-5.38,6.53,6.53,0,0,1,3.63-3.57,7.22,7.22,0,0,1,2.76-.52M116,132.77a3.88,3.88,0,1,1,3.89,4.1,3.85,3.85,0,0,1-3.89-4.1m10.38,0v-6.41h-2.79v1.56a4.86,4.86,0,0,0-4-1.88,6.74,6.74,0,0,0,0,13.46,4.86,4.86,0,0,0,4-1.88v1.56h2.79Zm-15.71,6.41v-8a4.77,4.77,0,0,0-5-5.09,5,5,0,0,0-4.51,2.28A4.71,4.71,0,0,0,96.88,126a4.24,4.24,0,0,0-3.75,1.9v-1.58H90.34v12.82h2.81v-7.1c0-2.22,1.23-3.41,3.14-3.41s2.79,1.21,2.79,3.38v7.13h2.81v-7.1c0-2.22,1.29-3.41,3.14-3.41s2.82,1.21,2.82,3.38v7.13Z"/><path class="cls-4" d="M198.41,138.22v.32h.29a.29.29,0,0,0,.16,0,.13.13,0,0,0,.06-.12.13.13,0,0,0-.06-.12.26.26,0,0,0-.16,0Zm.29-.22a.54.54,0,0,1,.35.1.34.34,0,0,1,.12.28.32.32,0,0,1-.1.24.49.49,0,0,1-.28.12l.39.44h-.3l-.36-.44h-.12v.44h-.25V138Zm-.08,1.59a.93.93,0,0,0,.38-.08,1,1,0,0,0,.31-.21,1,1,0,0,0,.21-.32,1,1,0,0,0,0-.77,1,1,0,0,0-.21-.32,1,1,0,0,0-.31-.21.93.93,0,0,0-.38-.08,1,1,0,0,0-.39.08.94.94,0,0,0-.32.21,1,1,0,0,0-.21,1.09.93.93,0,0,0,.21.32,1,1,0,0,0,.32.21,1,1,0,0,0,.39.08m0-2.26a1.25,1.25,0,0,1,.5.1,1.27,1.27,0,0,1,.41.27,1.25,1.25,0,0,1,.28.41,1.26,1.26,0,0,1,0,1,1.27,1.27,0,0,1-.28.4,1.32,1.32,0,0,1-.41.28,1.25,1.25,0,0,1-.5.1,1.31,1.31,0,0,1-.93-.38,1.27,1.27,0,0,1-.28-.4,1.26,1.26,0,0,1,0-1,1.25,1.25,0,0,1,.28-.41,1.23,1.23,0,0,1,.41-.27,1.29,1.29,0,0,1,.51-.1"/></svg>