<svg id="Layer_1" data-name="Layer 1" xmlns="http://www.w3.org/2000/svg" viewBox="0 0 283.46 158.74"><defs><style>.cls-1{fill:none;}.cls-2{fill:#231f20;}.cls-3{fill:#f26122;}.cls-4{fill:#ea1d25;}.cls-5{fill:#f69e1e;}</style></defs><title>master</title><g id="Layer_2" data-name="Layer 2"><g id="Layer_1-2" data-name="Layer 1-2"><rect class="cls-1" x="44.96" width="193.53" height="158.74"/><path class="cls-2" d="M92.89,138.77v-7.91a4.69,4.69,0,0,0-5-5,4.88,4.88,0,0,0-4.43,2.24,4.63,4.63,0,0,0-4.17-2.24,4.17,4.17,0,0,0-3.69,1.87v-1.56H72.9v12.6h2.77v-6.93a3,3,0,0,1,3.08-3.35c1.82,0,2.74,1.19,2.74,3.32v7h2.77v-7a3,3,0,0,1,3.08-3.35c1.87,0,2.77,1.19,2.77,3.32v7Zm41-12.6h-4.51v-3.82h-2.77v3.82h-2.5v2.5h2.56v5.8c0,2.93,1.13,4.67,4.38,4.67a6.43,6.43,0,0,0,3.43-1l-.79-2.35a5.06,5.06,0,0,1-2.43.71c-1.32,0-1.82-.84-1.82-2.11v-5.75h4.48Zm23.39-.32a3.72,3.72,0,0,0-3.32,1.85v-1.53H151.2v12.6h2.74V131.7c0-2.08.9-3.24,2.64-3.24a4.47,4.47,0,0,1,1.71.32l.84-2.64a5.87,5.87,0,0,0-2-.34Zm-35.36,1.32a9.43,9.43,0,0,0-5.14-1.32c-3.19,0-5.27,1.53-5.27,4,0,2.06,1.53,3.32,4.35,3.72l1.32.18c1.5.21,2.21.61,2.21,1.32,0,1-1,1.53-2.87,1.53a6.71,6.71,0,0,1-4.19-1.32L111,137.45a9.1,9.1,0,0,0,5.46,1.63c3.64,0,5.75-1.71,5.75-4.11s-1.66-3.37-4.4-3.77l-1.32-.18c-1.19-.16-2.14-.4-2.14-1.24s.9-1.48,2.4-1.48a8.12,8.12,0,0,1,4,1.08Zm73.44-1.32a3.72,3.72,0,0,0-3.32,1.85v-1.53h-2.72v12.6H192V131.7c0-2.08.9-3.24,2.64-3.24a4.47,4.47,0,0,1,1.71.32l.84-2.64a5.87,5.87,0,0,0-2-.34ZM160,132.44a6.37,6.37,0,0,0,6.13,6.6h.59a6.59,6.59,0,0,0,4.54-1.5l-1.32-2.21a5.54,5.54,0,0,1-3.3,1.13,4,4,0,0,1,0-8.07,5.54,5.54,0,0,1,3.3,1.13l1.32-2.21a6.59,6.59,0,0,0-4.54-1.5,6.37,6.37,0,0,0-6.72,6q0,.3,0,.59Zm25.68,0v-6.28h-2.74v1.53a4.79,4.79,0,0,0-4-1.85A6.59,6.59,0,1,0,179,139a4.79,4.79,0,0,0,4-1.85v1.53h2.74Zm-10.2,0a3.78,3.78,0,1,1,0,.3Q175.46,132.59,175.47,132.44Zm-33.09-6.59a6.59,6.59,0,1,0,.18,13.18h0a7.66,7.66,0,0,0,5.23-1.71l-1.32-2a6,6,0,0,1-3.66,1.32,3.49,3.49,0,0,1-3.77-3.08h9.36v-1.05c0-4-2.45-6.59-6-6.59Zm0,2.45a3.12,3.12,0,0,1,3.19,3.06H139a3.24,3.24,0,0,1,3.35-3.06Zm68.7,4.17V121.1h-2.64v6.59a4.79,4.79,0,0,0-4-1.85,6.59,6.59,0,0,0,0,13.18,4.79,4.79,0,0,0,4-1.85v1.53h2.64Zm4.57,4.47a1.27,1.27,0,0,1,1.19.75,1.23,1.23,0,0,1,0,1,1.26,1.26,0,0,1-.69.66,1.24,1.24,0,0,1-.5.11,1.32,1.32,0,0,1-1.19-.76,1.24,1.24,0,0,1,0-1,1.28,1.28,0,0,1,1.23-.75Zm0,2.23a.94.94,0,0,0,.38-.08,1,1,0,0,0,.3-.21.95.95,0,0,0-.3-1.53,1,1,0,0,0-.38-.08,1,1,0,0,0-.38.08,1,1,0,0,0-.32.21,1,1,0,0,0,.74,1.61Zm.08-1.57a.53.53,0,0,1,.34.11.33.33,0,0,1,.12.28.32.32,0,0,1-.09.24.46.46,0,0,1-.28.12l.38.44h-.3l-.36-.44h-.12v.44h-.25v-1.16Zm-.29.22v.32h.29a.28.28,0,0,0,.16,0,.13.13,0,0,0,0-.12.13.13,0,0,0,0-.12.28.28,0,0,0-.16,0Zm-14.5-5.35a3.78,3.78,0,1,1,0,.3Q200.93,132.61,200.94,132.47Zm-92.59,0v-6.3h-2.74v1.53a4.79,4.79,0,0,0-4-1.85,6.59,6.59,0,0,0,0,13.18,4.79,4.79,0,0,0,4-1.85v1.53h2.74Zm-10.2,0a3.52,3.52,0,1,1,0,.33q0-.16,0-.33Z"/><g id="_Group_" data-name=" Group "><rect class="cls-3" x="120.97" y="30.12" width="41.53" height="74.63"/><path id="_Path_" data-name=" Path " class="cls-4" d="M123.6,67.45a47.38,47.38,0,0,1,18.13-37.32,47.46,47.46,0,1,0,0,74.63A47.38,47.38,0,0,1,123.6,67.45Z"/><path class="cls-5" d="M218.52,67.45a47.46,47.46,0,0,1-76.79,37.31,47.46,47.46,0,0,0,0-74.63,47.46,47.46,0,0,1,76.79,37.31Z"/><path class="cls-5" d="M214,96.84V95.32h.62V95H213v.32h.67v1.53Zm3,0V95h-.47L216,96.32,215.45,95H215v1.85h.34V95.46l.51,1.2h.36l.51-1.2v1.4Z"/></g></g></g></svg>