<svg id="Layer_1" data-name="Layer 1" xmlns="http://www.w3.org/2000/svg" viewBox="0 0 283.46 158.74"><defs><style>.cls-1{fill:#0066b3;}.cls-2{fill:#faa634;}</style></defs><title>visa-01</title><polygon class="cls-1" points="124.35 120.36 103.02 120.36 116.35 38.44 137.68 38.44 124.35 120.36"/><path class="cls-1" d="M85.08,38.44,64.74,94.78,62.34,82.65h0L55.16,45.81S54.29,38.44,45,38.44H11.43L11,39.82a79.66,79.66,0,0,1,22.31,9.37l18.53,71.17H74.1L108,38.44Z"/><path class="cls-1" d="M252.84,120.36h19.58L255.35,38.44H238.2c-7.92,0-9.85,6.11-9.85,6.11l-31.81,75.82h22.23l4.45-12.17h27.11Zm-23.47-29,11.21-30.66,6.3,30.66Z"/><path class="cls-1" d="M198.21,58.14l3-17.6A61.57,61.57,0,0,0,182.07,37c-10.58,0-35.72,4.63-35.72,27.12,0,21.17,29.5,21.43,29.5,32.54s-26.46,9.13-35.19,2.12l-3.17,18.39s9.52,4.63,24.08,4.63,36.51-7.54,36.51-28c0-21.3-29.77-23.28-29.77-32.54S189.09,53.11,198.21,58.14Z"/><path class="cls-2" d="M62.34,82.65,55.16,45.81S54.29,38.44,45,38.44H11.43L11,39.82A82.67,82.67,0,0,1,42.69,55.72,63.89,63.89,0,0,1,62.34,82.65Z"/></svg>