<svg id="Layer_1" data-name="Layer 1" xmlns="http://www.w3.org/2000/svg" viewBox="0 0 283.46 158.74"><defs><style>.cls-1{fill:#1a1f71;}</style></defs><title>visa-e</title><path class="cls-1" d="M116.52,31.53,87.79,100.08H69L54.9,45.37c-.86-3.36-1.6-4.6-4.21-6-4.26-2.32-11.31-4.48-17.5-5.83l.42-2H63.79a8.27,8.27,0,0,1,8.18,7l7.47,39.67L97.89,31.53Zm25.34,0L127.2,100.08H109.46l14.66-68.55ZM190,77.69c.07-18.09-25-19.09-24.85-27.17.06-2.46,2.4-5.07,7.52-5.74a33.49,33.49,0,0,1,17.49,3.07l3.11-14.54a47.81,47.81,0,0,0-16.59-3c-17.53,0-29.87,9.31-30,22.66-.11,9.87,8.81,15.37,15.52,18.66,6.91,3.36,9.23,5.52,9.2,8.52,0,4.6-5.52,6.64-10.61,6.71-8.92.14-14.09-2.41-18.21-4.33l-3.22,15c4.15,1.9,11.8,3.55,19.72,3.64,18.64,0,30.83-9.21,30.88-23.46Zm46.3,22.38h16.4L238.34,31.53H223.21a8.07,8.07,0,0,0-7.55,5L189,100.08h18.62l3.69-10.24h22.75Zm-19.8-24.29L225.81,50l5.36,25.74Zm-51.91,43.16h-7.21v6.71h8.06v2H154.93V109.06H165v2h-7.65V117h7.21Zm4.58-10.88h2.43v19.6h-2.43Zm8.55,13.36c.05,3.29,2.13,4.64,4.58,4.64a8.72,8.72,0,0,0,3.7-.69l.44,1.74a10.91,10.91,0,0,1-4.47.85c-4.11,0-6.57-2.73-6.57-6.76s2.37-7.18,6.27-7.18c4.39,0,5.52,3.81,5.52,6.27a5.83,5.83,0,0,1-.08,1.13Zm7.12-1.74c0-1.52-.63-3.92-3.37-3.92-2.48,0-3.53,2.24-3.73,3.92Zm15.56,7.51a9.38,9.38,0,0,1-3.84.77c-4,0-6.65-2.73-6.65-6.82a6.81,6.81,0,0,1,7.18-7.12,7.63,7.63,0,0,1,3.37.72l-.55,1.85a6,6,0,0,0-2.82-.64c-3.06,0-4.72,2.29-4.72,5.05,0,3.09,2,5,4.64,5a6.94,6.94,0,0,0,3-.63Zm6.81-16.09v3.2h3.48v1.85h-3.48v7.21c0,1.66.47,2.6,1.82,2.6a4.49,4.49,0,0,0,1.41-.17l.11,1.85a6.64,6.64,0,0,1-2.15.33,3.47,3.47,0,0,1-2.62-1,5.22,5.22,0,0,1-.94-3.51v-7.29h-2.07v-1.85h2.07v-2.48Zm6.87,7.37c0-1.57,0-2.93-.11-4.17h2.13l.11,2.65h.08A4,4,0,0,1,220,114a5.14,5.14,0,0,1,.66.05v2.29a3.73,3.73,0,0,0-.83-.06,3.38,3.38,0,0,0-3.26,3.09,7.32,7.32,0,0,0-.08,1.13v7.12h-2.43Zm21.53,2.4c0,4.94-3.45,7.09-6.65,7.09-3.59,0-6.4-2.65-6.4-6.87,0-4.45,3-7.07,6.62-7.07C233,114,235.59,116.82,235.59,120.88ZM225,121c0,2.93,1.66,5.13,4,5.13S233.1,124,233.1,121c0-2.26-1.13-5.11-4-5.11S225,118.5,225,121Zm14.3-3.09c0-1.41,0-2.51-.11-3.62h2.15l.14,2.21h.05A5,5,0,0,1,246,114c1.85,0,4.72,1.1,4.72,5.69v8h-2.43V120c0-2.15-.8-3.95-3.09-3.95a3.5,3.5,0,0,0-3.26,2.48,3.45,3.45,0,0,0-.17,1.13v8h-2.43Z"/></svg>