<svg id="Layer_1" data-name="Layer 1" xmlns="http://www.w3.org/2000/svg" viewBox="0 0 210 46"><defs><style>.cls-1{fill:#3391af;}.cls-2{fill:#e47a99;}</style></defs><title>logo</title><path id="_Compound_Path_" data-name="&lt;Compound Path&gt;" class="cls-1" d="M61.55,1.6c.06-.25.26-.33.53-.33H66A4.51,4.51,0,0,1,70.7,5.59v2.3a4.24,4.24,0,0,1-4.46,4.2H61.88c-.14,0-.22-.08-.25-.16a.4.4,0,0,1-.08-.22Zm4.35,9.46c1.6,0,3.59-.64,3.76-3.62,0-.2,0-1.26,0-1.51-.14-2.3-1.4-3.62-3.75-3.62l-3.22,0v8.8l3.15,0Z"/><path id="_Compound_Path_2" data-name="&lt;Compound Path&gt;" class="cls-1" d="M83.12,11.66c.12.25-.3.45-.58.45a.48.48,0,0,1-.54-.37c-.08-.23-.19-.5-.3-.78L81,9H76c-.56,1.54-1,2.72-1,2.72a.49.49,0,0,1-.56.37c-.3,0-.65-.19-.53-.45L77.53,1.51c.06-.25.2-.31.5-.31h.9c.3,0,.42.06.5.31ZM76.34,7.94h4.24c-.87-2.35-1.9-5.07-2.14-5.81-.25.79-1.23,3.45-2.1,5.81"/><path id="_Compound_Path_3" data-name="&lt;Compound Path&gt;" class="cls-1" d="M87.67,11.67c0,.31-.26.42-.53.42s-.58-.11-.58-.42V1.44c0-.23.26-.28.58-.28a.75.75,0,0,1,.22,0h4.2a3.45,3.45,0,0,1,3.65,3.56A3,3,0,0,1,92.62,8l2.6,3.28c.23.31.06.45-.2.68a.49.49,0,0,1-.79-.17l-2.94-3.7H87.67Zm0-9.42V7.07h3.89c1.76,0,2.58-.89,2.56-2.38A2.46,2.46,0,0,0,91.5,2.24Z"/><path id="_Path_" data-name="&lt;Path&gt;" class="cls-1" d="M62.67,17.88v8c0,.3-.25.37-.51.37s-.61,0-.61-.34V15.66c0-.26.28-.33.61-.33s.39,0,.56.33c0,0,4,7,5.21,9.15,1.06-2.11,4.66-8.67,4.91-9.19.08-.23.29-.29.54-.29s.51.06.57.33V25.89c0,.3-.28.37-.57.37s-.54,0-.54-.34v-8c-.75,1.37-1.77,3.31-2.64,4.88l-1.51,2.83a1.33,1.33,0,0,1-.17.3.67.67,0,0,1-.51.3h-.06a.61.61,0,0,1-.62-.33Z"/><path id="_Path_2" data-name="&lt;Path&gt;" class="cls-1" d="M82.56,16.5l-3.78,0V20h5.7c.23,0,.25.19.25.51s0,.5-.2.54c-.51,0-1,0-1.54,0H78.78v4.13h6.53c.23,0,.26.2.26.51s0,.53-.26.58H78.24c-.3,0-.54-.08-.56-.34V15.69c0-.2.14-.26.34-.28h7c.23,0,.26.27.26.56s-.06.53-.25.53Z"/><path id="_Compound_Path_4" data-name="&lt;Compound Path&gt;" class="cls-1" d="M89,15.76c.06-.25.26-.33.53-.33h3.9a4.51,4.51,0,0,1,4.73,4.32V22a4.24,4.24,0,0,1-4.46,4.2H89.32c-.14,0-.22-.08-.25-.16a.41.41,0,0,1-.08-.22Zm4.35,9.46c1.6,0,3.59-.64,3.76-3.62,0-.2,0-1.26,0-1.51-.14-2.3-1.4-3.62-3.75-3.62l-3.22,0v8.8l3.15,0Z"/><path id="_Path_3" data-name="&lt;Path&gt;" class="cls-1" d="M101.88,15.57c.06-.23.26-.26.56-.26s.53,0,.57.26V25.89c0,.3-.28.37-.57.37s-.56-.08-.56-.37Z"/><path id="_Path_4" data-name="&lt;Path&gt;" class="cls-1" d="M115.43,24.52a.65.65,0,0,1-.16.26c-1.23,1.48-2.18,1.62-3.92,1.62-4.06,0-4.85-3.47-4.91-5.59-.08-3.28,1.79-5.59,4.94-5.59a4.44,4.44,0,0,1,3.92,1.65.62.62,0,0,1,.12.25.51.51,0,0,1-.19.53c-.51.37-.51.14-.87-.22a3.53,3.53,0,0,0-2.87-1.2c-2.32,0-3.87,1.54-3.92,4.57s1.8,4.57,3.92,4.57a3.21,3.21,0,0,0,2.81-1.09c.25-.37.45-.57.82-.33s.34.4.3.58"/><path id="_Compound_Path_5" data-name="&lt;Compound Path&gt;" class="cls-1" d="M127.72,25.81c.12.25-.3.45-.58.45a.48.48,0,0,1-.54-.37c-.08-.23-.19-.5-.3-.78l-.73-1.94h-5c-.56,1.54-1,2.72-1,2.72a.49.49,0,0,1-.56.37c-.3,0-.65-.19-.53-.45l3.68-10.15c.06-.25.2-.31.5-.31h.9c.3,0,.42.06.5.31Zm-6.78-3.71h4.24c-.87-2.35-1.9-5.07-2.14-5.81-.25.79-1.23,3.45-2.1,5.81"/><path id="_Path_5" data-name="&lt;Path&gt;" class="cls-2" d="M24.73,27.57c-2.34,0-5.3-2-8.44-4a31.59,31.59,0,0,0-7-3.89,7.68,7.68,0,0,0-5.6.51A4.71,4.71,0,0,0,1.3,22.95.67.67,0,0,1,0,22.56a6,6,0,0,1,3-3.57,9.09,9.09,0,0,1,6.62-.61,32.41,32.41,0,0,1,7.35,4c2.84,1.87,5.77,3.81,7.71,3.81,3.41,0,17.69-6.27,19.26-7.05a25.94,25.94,0,0,0,7.28-5.85c1.76-1.93,2.41-3.66,2.28-4.52a.66.66,0,0,0-.32-.52c-.65-.37-1.28.08-3.17,1.57l-.48.38-.63.49a30.83,30.83,0,0,1-4.48,3c-3.92,2.29-7.31,1.12-9.78.26a9.83,9.83,0,0,0-2.29-.62c-1-.06-1.55.56-2.28,1.72a7.78,7.78,0,0,1-2.52,2.8,2.67,2.67,0,0,1-2.9.06c-.48-.37-1-1.15-.53-2.7a6.45,6.45,0,0,1,.63-1.34c.45-.81,1-1.72.66-2.28a1.54,1.54,0,0,0-1-.74c-1.36-.37-3.66.25-5.88,1.56a9,9,0,0,1-10.49-.7A5.55,5.55,0,0,1,6.56,5.13C8.78.27,14-.53,18.23.35a28.72,28.72,0,0,1,7.26,3C27.83,4.59,30,5.75,31,5.18a15.92,15.92,0,0,0,2.68-2.12A13.14,13.14,0,0,1,37.45.39a6,6,0,0,1,4.61.17A5.39,5.39,0,0,1,45,3.66a5.26,5.26,0,0,1-.33,4.22,6.31,6.31,0,0,1-4,3.1c-2.7.74-6.07-1.15-6.22-1.24a.67.67,0,0,1,.66-1.16s3,1.7,5.2,1.11a5,5,0,0,0,3.18-2.43,3.94,3.94,0,0,0,.26-3.16,4.07,4.07,0,0,0-2.23-2.34A4.61,4.61,0,0,0,38,1.62,12,12,0,0,0,34.62,4a17.12,17.12,0,0,1-2.91,2.29c-1.64.94-3.94-.27-6.84-1.8A27.73,27.73,0,0,0,18,1.65c-3.69-.77-8.3-.11-10.19,4A4.27,4.27,0,0,0,9,10.8a7.61,7.61,0,0,0,8.92.54c2-1.18,4.86-2.25,6.91-1.7A2.89,2.89,0,0,1,26.62,11c.68,1.21-.06,2.53-.66,3.59a5.78,5.78,0,0,0-.51,1c-.18.65-.15,1.13.06,1.3A1.52,1.52,0,0,0,27,16.77a6.87,6.87,0,0,0,2-2.34c.54-.86,1.55-2.46,3.49-2.35a10.69,10.69,0,0,1,2.64.69c2.35.81,5.29,1.82,8.68-.15a29.48,29.48,0,0,0,4.32-2.94l.63-.5.48-.37c2-1.57,3.2-2.52,4.66-1.68a2,2,0,0,1,1,1.47c.22,1.46-.78,3.61-2.61,5.62a27.2,27.2,0,0,1-7.67,6.14c-1,.49-15.94,7.19-19.86,7.19"/></svg>