<svg id="Layer_1" data-name="Layer 1" xmlns="http://www.w3.org/2000/svg" viewBox="0 0 53.44 75.15"><defs><style>.cls-1{fill:#e47a98;}.cls-2{fill:#fff;}.cls-3{fill:#3390ae;}</style></defs><title>pin</title><path class="cls-1" d="M26.72,3.75C12.8,3.75-1.93,16.88,1.51,32,4.76,46.28,26.72,71.92,26.72,71.92S48.68,46.28,51.93,32C55.37,16.88,40.65,3.75,26.72,3.75Z"/><path class="cls-2" d="M26.72,68.82c-5-6-20.66-25.76-23.28-37.27A19,19,0,0,1,7.51,15.31,25.66,25.66,0,0,1,26.72,5.74a25.66,25.66,0,0,1,19.21,9.57A19,19,0,0,1,50,31.55C47.38,43.07,31.69,62.79,26.72,68.82Z"/><path id="_Compound_Path_" data-name="&lt;Compound Path&gt;" class="cls-3" d="M16.72,12.4c0-.15.16-.19.31-.19h2.31a2.67,2.67,0,0,1,2.8,2.56v1.36a2.51,2.51,0,0,1-2.64,2.48H16.92c-.08,0-.13,0-.15-.09a.24.24,0,0,1,0-.13ZM19.3,18a2,2,0,0,0,2.23-2.14c0-.12,0-.75,0-.89a2,2,0,0,0-2.22-2.14l-1.9,0V18h1.9Z"/><path id="_Compound_Path_2" data-name="&lt;Compound Path&gt;" class="cls-3" d="M29.49,18.35c.07.15-.17.27-.34.27a.28.28,0,0,1-.32-.22c0-.14-.11-.29-.17-.46l-.43-1.15h-3c-.33.91-.6,1.61-.61,1.61a.29.29,0,0,1-.33.22c-.17,0-.39-.11-.31-.27l2.18-6c0-.15.12-.18.29-.18H27c.17,0,.25,0,.29.18Zm-4-2.2H28c-.52-1.39-1.12-3-1.27-3.44-.15.47-.73,2-1.24,3.44"/><path id="_Compound_Path_3" data-name="&lt;Compound Path&gt;" class="cls-3" d="M32.19,18.36c0,.18-.16.25-.31.25s-.34-.06-.34-.25V12.3c0-.14.16-.17.34-.17h2.61a2,2,0,0,1,2.16,2.11,1.81,1.81,0,0,1-1.54,1.94l1.54,1.94c.14.18,0,.27-.12.4a.29.29,0,0,1-.47-.1l-1.74-2.19H32.19Zm0-5.58v2.85h2.3c1,0,1.53-.52,1.52-1.41a1.45,1.45,0,0,0-1.55-1.45Z"/><path id="_Path_" data-name="&lt;Path&gt;" class="cls-3" d="M7.79,22v4.74c0,.17-.15.22-.3.22s-.36,0-.36-.2V20.72c0-.16.17-.19.36-.19s.23,0,.33.19c0,0,2.35,4.17,3.08,5.42.63-1.25,2.76-5.13,2.91-5.44,0-.14.17-.17.32-.17s.3,0,.34.19v6.05c0,.17-.17.22-.34.22s-.32,0-.32-.2V22.07c-.44.81-1,2-1.56,2.89l-.89,1.67a.79.79,0,0,1-.1.18.4.4,0,0,1-.3.17h0a.36.36,0,0,1-.37-.19Z"/><path id="_Path_2" data-name="&lt;Path&gt;" class="cls-3" d="M19.57,21.22H17.33v2.06h3.38c.14,0,.15.11.15.3s0,.29-.12.32h-3.4v2.45h3.86c.14,0,.16.12.16.3s0,.31-.16.34H17c-.17,0-.32,0-.33-.2v-6c0-.12.08-.16.2-.17H21c.14,0,.16.16.16.33s0,.31-.15.31Z"/><path id="_Compound_Path_4" data-name="&lt;Compound Path&gt;" class="cls-3" d="M23.37,20.78c0-.15.16-.19.31-.19H26a2.67,2.67,0,0,1,2.8,2.56V24.5A2.51,2.51,0,0,1,26.15,27H23.57c-.08,0-.13,0-.15-.09a.24.24,0,0,1,0-.13ZM26,26.38a2,2,0,0,0,2.23-2.14c0-.12,0-.75,0-.89A2,2,0,0,0,26,21.2l-1.9,0v5.21H26Z"/><path id="_Path_3" data-name="&lt;Path&gt;" class="cls-3" d="M31,20.67c0-.14.16-.16.33-.16s.31,0,.34.16v6.11c0,.17-.17.22-.34.22s-.33,0-.33-.22Z"/><path id="_Path_4" data-name="&lt;Path&gt;" class="cls-3" d="M39,26a.39.39,0,0,1-.09.16,2.44,2.44,0,0,1-2.32,1c-2.4,0-2.87-2.05-2.91-3.31,0-1.94,1.06-3.31,2.93-3.31a2.63,2.63,0,0,1,2.32,1,.37.37,0,0,1,.07.15.3.3,0,0,1-.11.31c-.3.22-.3.08-.52-.13a2.09,2.09,0,0,0-1.7-.71c-1.37,0-2.29.91-2.32,2.7s1.07,2.7,2.32,2.7a1.9,1.9,0,0,0,1.67-.64c.15-.22.27-.34.49-.19s.2.24.17.34"/><path id="_Compound_Path_5" data-name="&lt;Compound Path&gt;" class="cls-3" d="M46.3,26.73c.07.15-.17.27-.34.27a.28.28,0,0,1-.32-.22c0-.14-.11-.29-.17-.46L45,25.16h-3c-.33.91-.6,1.61-.61,1.61a.29.29,0,0,1-.33.22c-.17,0-.39-.11-.31-.27l2.18-6c0-.15.12-.18.29-.18h.53c.17,0,.25,0,.29.18Zm-4-2.2H44.8c-.52-1.39-1.12-3-1.27-3.44-.15.47-.73,2-1.24,3.44"/><path id="_Path_5" data-name="&lt;Path&gt;" class="cls-1" d="M25.11,46.8c-1.38,0-3.14-1.16-5-2.38A18.72,18.72,0,0,0,16,42.12a4.55,4.55,0,0,0-3.31.3,2.79,2.79,0,0,0-1.41,1.65.39.39,0,0,1-.76-.23,3.54,3.54,0,0,1,1.79-2.11,5.38,5.38,0,0,1,3.92-.36,19.2,19.2,0,0,1,4.35,2.4C22.23,44.86,24,46,25.11,46c2,0,10.47-3.71,11.4-4.17a15.35,15.35,0,0,0,4.31-3.46,4,4,0,0,0,1.35-2.68.39.39,0,0,0-.19-.31c-.38-.22-.76,0-1.88.93l-.28.22-.37.29a18.28,18.28,0,0,1-2.65,1.8c-2.32,1.35-4.33.66-5.79.16a5.82,5.82,0,0,0-1.36-.37c-.57,0-.92.33-1.35,1a4.61,4.61,0,0,1-1.49,1.66,1.58,1.58,0,0,1-1.72,0c-.28-.22-.57-.68-.31-1.6a3.85,3.85,0,0,1,.38-.8c.27-.48.57-1,.39-1.35a.91.91,0,0,0-.6-.44,5.25,5.25,0,0,0-3.48.92,5.3,5.3,0,0,1-6.21-.41,3.28,3.28,0,0,1-.9-3.95c1.31-2.87,4.43-3.35,6.91-2.83a17,17,0,0,1,4.3,1.78c1.38.73,2.69,1.42,3.29,1.08a9.45,9.45,0,0,0,1.58-1.25,7.78,7.78,0,0,1,2.21-1.58,3.53,3.53,0,0,1,2.73.1,3.19,3.19,0,0,1,1.74,1.84,3.12,3.12,0,0,1-.2,2.5A3.74,3.74,0,0,1,34.54,37a5.78,5.78,0,0,1-3.68-.73.39.39,0,0,1,.39-.69,5.08,5.08,0,0,0,3.08.66,3,3,0,0,0,1.88-1.44,2.34,2.34,0,0,0,.15-1.87A2.41,2.41,0,0,0,35,31.53a2.73,2.73,0,0,0-2.11-.09,7.1,7.1,0,0,0-2,1.44,10.17,10.17,0,0,1-1.72,1.35c-1,.56-2.33-.16-4-1.06a16.45,16.45,0,0,0-4.09-1.71c-2.18-.45-4.91-.07-6,2.38a2.53,2.53,0,0,0,.71,3,4.51,4.51,0,0,0,5.28.32,6.07,6.07,0,0,1,4.09-1,1.71,1.71,0,0,1,1.08.81c.4.72,0,1.5-.39,2.12a3.42,3.42,0,0,0-.3.62c-.1.38-.09.67,0,.77a.9.9,0,0,0,.85-.1A4.07,4.07,0,0,0,27.64,39a2.35,2.35,0,0,1,2.07-1.39,6.32,6.32,0,0,1,1.56.41c1.39.48,3.13,1.08,5.14-.09A17.46,17.46,0,0,0,39,36.21l.37-.29.28-.22c1.18-.93,1.9-1.49,2.76-1a1.17,1.17,0,0,1,.57.87,4.7,4.7,0,0,1-1.55,3.33,16.1,16.1,0,0,1-4.54,3.64c-.58.29-9.44,4.26-11.75,4.26"/></svg>