<?xml version="1.0" encoding="utf-8"?>
<!-- Generator: Adobe Illustrator 21.0.0, SVG Export Plug-In . SVG Version: 6.00 Build 0)  -->
<svg version="1.1" id="Layer_1" focusable="false" xmlns="http://www.w3.org/2000/svg" xmlns:xlink="http://www.w3.org/1999/xlink"
	 x="0px" y="0px" viewBox="0 0 512 512" style="enable-background:new 0 0 512 512;" xml:space="preserve">
<style type="text/css">
	.st0{fill:#FFFFFF;}
</style>
<path class="st0" d="M201.5,174.8l55.7,55.8c3.1,3.1,3.1,8.2,0,11.3l-11.3,11.3c-3.1,3.1-8.2,3.1-11.3,0l-55.7-55.8l-45.3,45.3
	l55.8,55.8c3.1,3.1,3.1,8.2,0,11.3l-11.3,11.3c-3.1,3.1-8.2,3.1-11.3,0L111,265.2l-26.4,26.4c-17.3,17.3-25.6,41.1-23,65.4l7.1,63.6
	L2.3,487c-3.1,3.1-3.1,8.2,0,11.3l11.3,11.3c3.1,3.1,8.2,3.1,11.3,0l66.3-66.3l63.6,7.1c23.9,2.6,47.9-5.4,65.4-23l181.9-181.9
	L266.4,109.8L201.5,174.8L201.5,174.8z M509.7,81.5L430.5,2.3c-3.1-3.1-8.2-3.1-11.3,0l-11.3,11.3c-3.1,3.1-3.1,8.2,0,11.3
	l28.3,28.3l-45.3,45.3l-56.6-56.6l-17-17c-3.1-3.1-8.2-3.1-11.3,0l-33.9,33.9c-3.1,3.1-3.1,8.2,0,11.3l17,17L424.8,223l17,17
	c3.1,3.1,8.2,3.1,11.3,0l33.9-34c3.1-3.1,3.1-8.2,0-11.3l-73.5-73.5l45.3-45.3l28.3,28.3c3.1,3.1,8.2,3.1,11.3,0l11.3-11.3
	C512.8,89.7,512.8,84.7,509.7,81.5L509.7,81.5z"/>
</svg>
